name rise37.2698peak67.6939fall79.5734.mot
datacolumns 19
datarows 36
range 21.16158400000000 21.21992500000000
endheader
time	ground_force1_vx	ground_force1_vy	ground_force1_vz	ground_force1_px	ground_force1_py	ground_force1_pz	ground_force2_vx	ground_force2_vy	ground_force2_vz	ground_force2_px	ground_force2_py	ground_force2_pz	ground_torque1_x	ground_torque1_y	ground_torque1_z	ground_torque2_x	ground_torque2_y	ground_torque2_z	
21.16158400000000	59.08648100000000	738.66307500000005	48.29715900000000	0.35089600000000	0.00000000000000	0.10621200000000	0.00000000000000	0.00000000000000	0.00000000000000	0.00000000000000	0.00000000000000	0.00000000000000	0.00000000000000	20.39844100000000	0.00000000000000	0.00000000000000	0.00000000000000	0.00000000000000	
21.16325100000000	58.69432200000000	742.60957399999995	48.44157000000000	0.35024400000000	0.00000000000000	0.10617700000000	0.00000000000000	0.00000000000000	0.00000000000000	0.00000000000000	0.00000000000000	0.00000000000000	0.00000000000000	20.47436800000000	0.00000000000000	0.00000000000000	0.00000000000000	0.00000000000000	
21.16492100000000	58.30562400000000	746.46424700000000	48.59206200000000	0.34963100000000	0.00000000000000	0.10614300000000	0.00000000000000	0.00000000000000	0.00000000000000	0.00000000000000	0.00000000000000	0.00000000000000	0.00000000000000	20.55685000000000	0.00000000000000	0.00000000000000	0.00000000000000	0.00000000000000	
21.16660100000000	57.92042900000000	750.22308199999998	48.74821300000000	0.34905500000000	0.00000000000000	0.10610800000000	0.00000000000000	0.00000000000000	0.00000000000000	0.00000000000000	0.00000000000000	0.00000000000000	0.00000000000000	20.64556600000000	0.00000000000000	0.00000000000000	0.00000000000000	0.00000000000000	
21.16825800000000	57.53870600000000	753.88207699999998	48.90951700000000	0.34851400000000	0.00000000000000	0.10607300000000	0.00000000000000	0.00000000000000	0.00000000000000	0.00000000000000	0.00000000000000	0.00000000000000	0.00000000000000	20.74013700000000	0.00000000000000	0.00000000000000	0.00000000000000	0.00000000000000	
21.16992000000000	57.16035700000000	757.43725800000004	49.07538800000000	0.34800700000000	0.00000000000000	0.10603800000000	0.00000000000000	0.00000000000000	0.00000000000000	0.00000000000000	0.00000000000000	0.00000000000000	0.00000000000000	20.84013300000000	0.00000000000000	0.00000000000000	0.00000000000000	0.00000000000000	
21.17159700000000	56.78521500000000	760.88469899999996	49.24516400000000	0.34753100000000	0.00000000000000	0.10600300000000	0.00000000000000	0.00000000000000	0.00000000000000	0.00000000000000	0.00000000000000	0.00000000000000	0.00000000000000	20.94507100000000	0.00000000000000	0.00000000000000	0.00000000000000	0.00000000000000	
21.17325400000000	56.41305300000000	764.22054200000002	49.41811600000000	0.34708400000000	0.00000000000000	0.10596800000000	0.00000000000000	0.00000000000000	0.00000000000000	0.00000000000000	0.00000000000000	0.00000000000000	0.00000000000000	21.05442600000000	0.00000000000000	0.00000000000000	0.00000000000000	0.00000000000000	
21.17492100000000	56.04359000000000	767.44101000000001	49.59345300000000	0.34666400000000	0.00000000000000	0.10593400000000	0.00000000000000	0.00000000000000	0.00000000000000	0.00000000000000	0.00000000000000	0.00000000000000	0.00000000000000	21.16762800000000	0.00000000000000	0.00000000000000	0.00000000000000	0.00000000000000	
21.17658900000000	55.67648700000000	770.54242999999997	49.77033300000000	0.34626800000000	0.00000000000000	0.10589900000000	0.00000000000000	0.00000000000000	0.00000000000000	0.00000000000000	0.00000000000000	0.00000000000000	0.00000000000000	21.28407200000000	0.00000000000000	0.00000000000000	0.00000000000000	0.00000000000000	
21.17825400000000	55.31136300000000	773.52124900000001	49.94786600000000	0.34589300000000	0.00000000000000	0.10586600000000	0.00000000000000	0.00000000000000	0.00000000000000	0.00000000000000	0.00000000000000	0.00000000000000	0.00000000000000	21.40312100000000	0.00000000000000	0.00000000000000	0.00000000000000	0.00000000000000	
21.17992300000000	54.94779300000000	776.37404800000002	50.12512500000000	0.34553800000000	0.00000000000000	0.10583200000000	0.00000000000000	0.00000000000000	0.00000000000000	0.00000000000000	0.00000000000000	0.00000000000000	0.00000000000000	21.52411100000000	0.00000000000000	0.00000000000000	0.00000000000000	0.00000000000000	
21.18158400000000	54.58531500000000	779.09756300000004	50.30115100000000	0.34519900000000	0.00000000000000	0.10579900000000	0.00000000000000	0.00000000000000	0.00000000000000	0.00000000000000	0.00000000000000	0.00000000000000	0.00000000000000	21.64635200000000	0.00000000000000	0.00000000000000	0.00000000000000	0.00000000000000	
21.18325300000000	54.22343300000000	781.68869800000004	50.47496500000000	0.34487400000000	0.00000000000000	0.10576700000000	0.00000000000000	0.00000000000000	0.00000000000000	0.00000000000000	0.00000000000000	0.00000000000000	0.00000000000000	21.76913900000000	0.00000000000000	0.00000000000000	0.00000000000000	0.00000000000000	
21.18492300000000	53.86162700000000	784.14454200000000	50.64556800000000	0.34455900000000	0.00000000000000	0.10573600000000	0.00000000000000	0.00000000000000	0.00000000000000	0.00000000000000	0.00000000000000	0.00000000000000	0.00000000000000	21.89175100000000	0.00000000000000	0.00000000000000	0.00000000000000	0.00000000000000	
21.18659900000000	53.49935400000000	786.46238100000005	50.81196000000000	0.34425300000000	0.00000000000000	0.10570500000000	0.00000000000000	0.00000000000000	0.00000000000000	0.00000000000000	0.00000000000000	0.00000000000000	0.00000000000000	22.01346200000000	0.00000000000000	0.00000000000000	0.00000000000000	0.00000000000000	
21.18825400000000	53.13605400000000	788.63971300000003	50.97313500000000	0.34395200000000	0.00000000000000	0.10567500000000	0.00000000000000	0.00000000000000	0.00000000000000	0.00000000000000	0.00000000000000	0.00000000000000	0.00000000000000	22.13353800000000	0.00000000000000	0.00000000000000	0.00000000000000	0.00000000000000	
21.18992300000000	52.77115600000000	790.67426000000000	51.12809900000000	0.34365300000000	0.00000000000000	0.10564600000000	0.00000000000000	0.00000000000000	0.00000000000000	0.00000000000000	0.00000000000000	0.00000000000000	0.00000000000000	22.25124900000000	0.00000000000000	0.00000000000000	0.00000000000000	0.00000000000000	
21.19159100000000	52.40408200000000	792.56398300000001	51.27587000000000	0.34335400000000	0.00000000000000	0.10561800000000	0.00000000000000	0.00000000000000	0.00000000000000	0.00000000000000	0.00000000000000	0.00000000000000	0.00000000000000	22.36586900000000	0.00000000000000	0.00000000000000	0.00000000000000	0.00000000000000	
21.19325000000000	52.03425300000000	794.30708800000002	51.41548700000000	0.34305100000000	0.00000000000000	0.10559100000000	0.00000000000000	0.00000000000000	0.00000000000000	0.00000000000000	0.00000000000000	0.00000000000000	0.00000000000000	22.47668400000000	0.00000000000000	0.00000000000000	0.00000000000000	0.00000000000000	
21.19491800000000	51.66109200000000	795.90203899999995	51.54601900000000	0.34274200000000	0.00000000000000	0.10556500000000	0.00000000000000	0.00000000000000	0.00000000000000	0.00000000000000	0.00000000000000	0.00000000000000	0.00000000000000	22.58299300000000	0.00000000000000	0.00000000000000	0.00000000000000	0.00000000000000	
21.19659600000000	51.28402900000000	797.34756600000003	51.66656700000000	0.34242400000000	0.00000000000000	0.10554100000000	0.00000000000000	0.00000000000000	0.00000000000000	0.00000000000000	0.00000000000000	0.00000000000000	0.00000000000000	22.68411300000000	0.00000000000000	0.00000000000000	0.00000000000000	0.00000000000000	
21.19825900000000	50.90250800000000	798.64267299999995	51.77627300000000	0.34209500000000	0.00000000000000	0.10551700000000	0.00000000000000	0.00000000000000	0.00000000000000	0.00000000000000	0.00000000000000	0.00000000000000	0.00000000000000	22.77938800000000	0.00000000000000	0.00000000000000	0.00000000000000	0.00000000000000	
21.19992100000000	50.51598600000000	799.78664400000002	51.87432300000000	0.34175100000000	0.00000000000000	0.10549500000000	0.00000000000000	0.00000000000000	0.00000000000000	0.00000000000000	0.00000000000000	0.00000000000000	0.00000000000000	22.86818400000000	0.00000000000000	0.00000000000000	0.00000000000000	0.00000000000000	
21.20160300000000	50.12394000000000	800.77905099999998	51.95995300000000	0.34139000000000	0.00000000000000	0.10547400000000	0.00000000000000	0.00000000000000	0.00000000000000	0.00000000000000	0.00000000000000	0.00000000000000	0.00000000000000	22.94990100000000	0.00000000000000	0.00000000000000	0.00000000000000	0.00000000000000	
21.20325300000000	49.72587300000000	801.61975700000005	52.03245500000000	0.34100900000000	0.00000000000000	0.10545500000000	0.00000000000000	0.00000000000000	0.00000000000000	0.00000000000000	0.00000000000000	0.00000000000000	0.00000000000000	23.02397300000000	0.00000000000000	0.00000000000000	0.00000000000000	0.00000000000000	
21.20492100000000	49.32131200000000	802.30891699999995	52.09117800000000	0.34060600000000	0.00000000000000	0.10543700000000	0.00000000000000	0.00000000000000	0.00000000000000	0.00000000000000	0.00000000000000	0.00000000000000	0.00000000000000	23.08986900000000	0.00000000000000	0.00000000000000	0.00000000000000	0.00000000000000	
21.20659500000000	48.90981500000000	802.84698600000002	52.13553200000000	0.34017800000000	0.00000000000000	0.10542100000000	0.00000000000000	0.00000000000000	0.00000000000000	0.00000000000000	0.00000000000000	0.00000000000000	0.00000000000000	23.14710000000000	0.00000000000000	0.00000000000000	0.00000000000000	0.00000000000000	
21.20825000000000	48.49097100000000	803.23471600000005	52.16499200000000	0.33972200000000	0.00000000000000	0.10540600000000	0.00000000000000	0.00000000000000	0.00000000000000	0.00000000000000	0.00000000000000	0.00000000000000	0.00000000000000	23.19522100000000	0.00000000000000	0.00000000000000	0.00000000000000	0.00000000000000	
21.20992000000000	48.06440600000000	803.47315600000002	52.17910200000000	0.33923800000000	0.00000000000000	0.10539300000000	0.00000000000000	0.00000000000000	0.00000000000000	0.00000000000000	0.00000000000000	0.00000000000000	0.00000000000000	23.23382800000000	0.00000000000000	0.00000000000000	0.00000000000000	0.00000000000000	
21.21158300000000	47.62978400000000	803.56365500000004	52.17747200000000	0.33872200000000	0.00000000000000	0.10538200000000	0.00000000000000	0.00000000000000	0.00000000000000	0.00000000000000	0.00000000000000	0.00000000000000	0.00000000000000	23.26256900000000	0.00000000000000	0.00000000000000	0.00000000000000	0.00000000000000	
21.21325000000000	47.18680500000000	803.50785499999995	52.15978400000000	0.33817200000000	0.00000000000000	0.10537200000000	0.00000000000000	0.00000000000000	0.00000000000000	0.00000000000000	0.00000000000000	0.00000000000000	0.00000000000000	23.28113600000000	0.00000000000000	0.00000000000000	0.00000000000000	0.00000000000000	
21.21492500000000	46.73521400000000	803.30769399999997	52.12579100000000	0.33758700000000	0.00000000000000	0.10536400000000	0.00000000000000	0.00000000000000	0.00000000000000	0.00000000000000	0.00000000000000	0.00000000000000	0.00000000000000	23.28927600000000	0.00000000000000	0.00000000000000	0.00000000000000	0.00000000000000	
21.21659400000000	46.27479600000000	802.96539499999994	52.07531800000000	0.33696400000000	0.00000000000000	0.10535900000000	0.00000000000000	0.00000000000000	0.00000000000000	0.00000000000000	0.00000000000000	0.00000000000000	0.00000000000000	23.28678200000000	0.00000000000000	0.00000000000000	0.00000000000000	0.00000000000000	
21.21825400000000	45.80538100000000	802.48346700000002	52.00826000000000	0.33630200000000	0.00000000000000	0.10535500000000	0.00000000000000	0.00000000000000	0.00000000000000	0.00000000000000	0.00000000000000	0.00000000000000	0.00000000000000	23.27350300000000	0.00000000000000	0.00000000000000	0.00000000000000	0.00000000000000	
21.21992500000000	45.32684200000000	801.86469499999998	51.92458500000000	0.33559900000000	0.00000000000000	0.10535300000000	0.00000000000000	0.00000000000000	0.00000000000000	0.00000000000000	0.00000000000000	0.00000000000000	0.00000000000000	23.24933600000000	0.00000000000000	0.00000000000000	0.00000000000000	0.00000000000000	
